# AST/ASF file generated using VICON BodyLanguage
# -----------------------------------------------
:version 1.10
:name VICON
:units
  mass 1.0
  length 0.45
  angle deg
:documentation
   .ast/.asf automatically generated from VICON data using
   VICON BodyBuilder and BodyLanguage model FoxedUp or BRILLIANT.MOD
:root
   order TX TY TZ RX RY RZ
   axis XYZ
   position 0 0 0  
   orientation 0 0 0 
:bonedata
  begin
     id 1 
     name lhipjoint
     direction 0.645893 -0.654526 0.392961 
     length 2.38111 
     axis 0 0 0  XYZ
  end
  begin
     id 2 
     name lfemur
     direction 0.34202 -0.939693 0  
     length 6.6822  
     axis 0 0 20  XYZ
    dof rx ry rz
    limits (-160.0 20.0)
           (-70.0 70.0)
           (-60.0 70.0)
  end
  begin
     id 3 
     name ltibia
     direction 0.34202 -0.939693 0   
     length 6.93904   
     axis 0 0 20   XYZ
    dof rx
    limits (-10.0 170.0)
  end
  begin
     id 4 
     name lfoot
     direction 0.0694967 -0.190941 0.979138   
     length 2.13616   
     axis -90 7.62852e-016 20   XYZ
    dof rx rz
    limits (-45.0 90.0)
           (-70.0 20.0)
  end
  begin
     id 5 
     name ltoes
     direction 1.535e-011 -4.2202e-011 1   
     length 1.07536   
     axis -90 7.62852e-016 20   XYZ
    dof rx
    limits (-90.0 20.0)
  end
  begin
     id 6 
     name rhipjoint
     direction -0.700219 -0.612087 0.367481   
     length 2.54621  
     axis 0 0 0  XYZ 
  end
  begin
     id 7 
     name rfemur
     direction -0.34202 -0.939693 0   
     length 6.55353   
     axis 0 0 -20   XYZ
    dof rx ry rz
    limits (-160.0 20.0)
           (-70.0 70.0)
           (-70.0 60.0)
  end
  begin
     id 8 
     name rtibia
     direction -0.34202 -0.939693 0   
     length 6.8736   
     axis 0 0 -20   XYZ
    dof rx
    limits (-10.0 170.0)
 end
 begin
     id 9 
     name rfoot
     direction -0.0679995 -0.186827 0.980037   
     length 2.1218  
     axis -90 -7.62852e-016 -20   XYZ
    dof rx rz
    limits (-45.0 90.0)
           (-20.0 70.0)
  end
  begin
     id 10 
     name rtoes
     direction -1.53589e-011 -4.21772e-011 1   
     length 1.06864   
     axis -90 -7.62852e-016 -20   XYZ
    dof rx
    limits (-90.0 20.0)
  end
  begin
     id 11 
     name lowerback
     direction -0.0416607 0.996347 -0.0745409   
     length 2.12205   
     axis 0 0 0   XYZ
    dof rx ry rz
    limits (-20.0 45.0)
           (-30.0 30.0)
           (-30.0 30.0)
  end
  begin
     id 12 
     name upperback
     direction -0.000153993 0.999276 -0.0380568   
     length 2.12759   
     axis 0 0 0   XYZ
    dof rx ry rz
    limits (-20.0 45.0)
           (-30.0 30.0)
           (-30.0 30.0)
  end
  begin
     id 13 
     name thorax
     direction 0.0187671 0.999821 -0.00241421   
     length 2.13704   
     axis 0 0 0   XYZ
    dof rx ry rz
    limits (-20.0 45.0)
           (-30.0 30.0)
           (-30.0 30.0)
  end
  begin
     id 14 
     name lowerneck
     direction 0.0268157 0.964865 0.261374   
     length 1.65253   
     axis 0 0 0   XYZ
    dof rx ry rz
    limits (-20.0 45.0)
           (-30.0 30.0)
           (-30.0 30.0)
  end
  begin
     id 15 
     name upperneck
     direction 0.00263774 0.939908 -0.341418   
     length 1.72375   
     axis 0 0 0   XYZ
    dof rx ry rz
    limits (-20.0 45.0)
           (-30.0 30.0)
           (-30.0 30.0)
  end
  begin
     id 16
     name head
     direction -0.00526001 0.989001 -0.147818  
     length 1.74878  
     axis 0 0 0   XYZ
    dof rx ry rz
    limits (-20.0 45.0)
           (-30.0 30.0)
           (-30.0 30.0)
  end
  begin
     id 17 
     name lclavicle
     direction 0.881214 0.461162 -0.103884  
     length 3.25108  
     axis 0 0 0   XYZ
    dof ry rz
    limits (-20.0 10.0)
           (0.0 20.0)
  end
  begin
     id 18 
     name lhumerus
     direction 1 -4.4899e-011 3.38092e-027   
     length 4.87408   
     axis 180 -30 -90   XYZ
    dof rx ry rz
    limits (-60.0 90.0)
           (-90.0 90.0)
           (-90.0 90.0)
  end
  begin
     id 19
     name lradius
     direction 1 -4.48931e-011 9.96288e-027   
     length 2.76729   
     axis 180 -30 -90   XYZ
    dof rx
    limits (-10.0 170.0)
  end
  begin
     id 20
     name lwrist
     direction 1 -4.4896e-011 1.50617e-026   
     length 1.38364   
     axis -9.31234e-015 90 90   XYZ
    dof ry
    limits (-180.0 0.0)
 end
  begin
     id 21 
     name lhand
     direction 1 -4.49038e-011 3.01286e-026   
     length 0.98922   
     axis -1.92217e-014 90 90   XYZ
    dof rx rz
    limits (-90.0 90.0)
           (-45.0 45.0)
  end
  begin
     id 22 
     name lfingers
     direction 1 -4.49051e-011 6.02588e-026   
     length 0.797535   
     axis -3.84436e-014 90 90   XYZ
    dof rx
    limits (0.0 90.0)
  end
  begin
     id 23
     name lthumb
     direction 0.707107 -6.34901e-011 0.707107   
     length 1.14511   
     axis -90 45 2.19363e-014   XYZ
    dof rx rz
    limits (-45.0 45.0)
           (-45.0 45.0)
  end
  begin
     id 24 
     name rclavicle
     direction -0.893894 0.441652 -0.0767889   
     length 3.29361  
     axis 0 0 0   XYZ 
    dof ry rz
    limits (-10.0 20.0)
           (-20.0 0.0)
  end
  begin
     id 25 
     name rhumerus
     direction -1 -4.48945e-011 8.0491e-028  
     length 4.71404   
     axis 180 30 90   XYZ
    dof rx ry rz
    limits (-90.0 60.0)
           (-90.0 90.0)
           (-90.0 90.0)
  end
  begin
     id 26 
     name rradius
     direction -1 -4.48986e-011 9.27795e-027   
     length 2.83468   
     axis 180 30 90   XYZ
    dof rx
    limits (-10.0 170.0)
  end
  begin
     id 27 
     name rwrist
     direction -1 -4.49029e-011 1.5064e-026   
     length 1.41734   
     axis -9.31234e-015 -90 -90   XYZ
    dof ry
    limits (-180.0 0.0)
  end
  begin
     id 28
     name rhand
     direction -1 -4.48857e-011 3.01165e-026   
     length 0.868195   
     axis -1.92217e-014 -90 -90   XYZ
    dof rx rz
    limits (-90.0 90.0)
           (-45.0 45.0)
  end
  begin
     id 29
     name rfingers
     direction -1 -4.49048e-011 6.02585e-026   
     length 0.699961   
     axis -3.84436e-014 -90 -90   XYZ
    dof rx
    limits (0.0 90.0)
  end
  begin
     id 30
     name rthumb
     direction -0.707107 -6.34854e-011 0.707107   
     length 1.00501   
     axis -90 -45 -2.19363e-014   XYZ
    dof rx rz
    limits (-45.0 45.0)
           (-45.0 45.0)
  end
:hierarchy
  begin
    root lhipjoint rhipjoint lowerback
    lhipjoint lfemur
    lfemur ltibia
    ltibia lfoot
    lfoot ltoes
    rhipjoint rfemur
    rfemur rtibia
    rtibia rfoot
    rfoot rtoes
    lowerback upperback
    upperback thorax
    thorax lowerneck lclavicle rclavicle
    lowerneck upperneck
    upperneck head
    lclavicle lhumerus
    lhumerus lradius
    lradius lwrist
    lwrist lhand lthumb
    lhand lfingers
    rclavicle rhumerus
    rhumerus rradius
    rradius rwrist
    rwrist rhand rthumb
    rhand rfingers
  end

#!OML:ASF H:\ManfredObstacles\Project 1\Capture day 2\Session 1\male.ASF
:FULLY-SPECIFIED
:DEGREES
346
root 0.228486 15.7395 14.218 -174.764 8.10419 182.609
lowerback -5.58395 2.03986 -0.224452
upperback 1.69412 2.72325 0.466423
thorax 4.85177 1.33683 0.872084
lowerneck -34.4336 0.689559 5.44161
upperneck 39.9968 1.28081 -2.80232
head 22.5771 1.64361 -1.8148
rclavicle -1.21507e-014 7.35503e-015
rhumerus -32.6088 -13.1744 -80.8278
rradius 33.1458
rwrist 27.0112
rhand -0.865462 -7.35152
rfingers 7.12502
rthumb 24.7612 -35.7688
lclavicle -1.21507e-014 7.35503e-015
lhumerus -38.5665 33.8377 65.3223
lradius 16.1844
lwrist -66.5631
lhand 3.00245 4.67618
lfingers 7.12502
lthumb 28.4629 32.531
rfemur 8.83097 4.81639 27.7415
rtibia 12.5744
rfoot -7.69983 -12.8847
rtoes -24.6142
lfemur -33.0038 -8.13159 -14.3117
ltibia 25.1441
lfoot 11.7299 17.0319
ltoes -11.2627
347
root 0.210648 15.7403 14.0939 -174.817 8.17426 182.473
lowerback -5.67127 2.04096 -0.384198
upperback 1.68517 2.73723 0.441167
thorax 4.88555 1.33874 0.939927
lowerneck -34.2 0.860667 5.83634
upperneck 39.6057 1.34929 -3.04689
head 22.2366 1.66218 -1.99675
rclavicle 1.92076e-014 -3.97569e-016
rhumerus -32.7762 -13.4459 -80.6558
rradius 33.037
rwrist 27.1259
rhand -0.918336 -7.37482
rfingers 7.12502
rthumb 24.7105 -35.799
lclavicle 1.92076e-014 -3.97569e-016
lhumerus -39.1087 34.8109 64.4487
lradius 15.9199
lwrist -67.5703
lhand 3.00339 4.69271
lfingers 7.12502
lthumb 28.4638 32.5474
rfemur 9.08165 5.09007 27.5487
rtibia 13.0887
rfoot -7.49828 -13.0781
rtoes -25.1959
lfemur -32.8299 -7.88483 -14.7823
ltibia 25.6107
lfoot 11.6928 16.2921
ltoes -10.2125
348
root 0.192591 15.7425 13.9708 -174.885 8.23518 182.257
lowerback -5.74636 2.04108 -0.612522
upperback 1.66615 2.75684 0.378832
thorax 4.90033 1.34197 1.00752
lowerneck -34.0454 0.953905 6.09107
upperneck 39.3741 1.35411 -3.16525
head 22.0315 1.66826 -2.10206
rclavicle -4.06266e-014 -1.59028e-015
rhumerus -32.9766 -13.764 -80.4844
rradius 32.8985
rwrist 27.2934
rhand -0.989125 -7.41485
rfingers 7.12502
rthumb 24.6426 -35.8483
lclavicle -4.06266e-014 -1.59028e-015
lhumerus -39.6143 35.6512 63.6198
lradius 15.665
lwrist -68.4668
lhand 2.99714 4.72902
lfingers 7.12502
lthumb 28.4578 32.5847
rfemur 9.15075 5.32396 27.269
rtibia 13.9507
rfoot -7.37235 -13.2955
rtoes -25.7177
lfemur -32.6118 -7.66 -15.3336
ltibia 26.0237
lfoot 11.6168 15.7762
ltoes -8.99168
349
root 0.174205 15.7459 13.849 -174.961 8.29079 181.97
lowerback -5.81402 2.0349 -0.905537
upperback 1.65751 2.77463 0.295212
thorax 4.91973 1.3427 1.08905
lowerneck -34.1082 0.957214 6.1154
upperneck 39.3709 1.29917 -3.1082
head 22.042 1.65864 -2.09185
rclavicle -1.70706e-014 4.96962e-015
rhumerus -33.1489 -14.1264 -80.3035
rradius 32.7105
rwrist 27.5315
rhand -1.05978 -7.45631
rfingers 7.12502
rthumb 24.5749 -35.899
lclavicle -1.70706e-014 4.96962e-015
lhumerus -40.0635 36.4409 62.8408
lradius 15.4223
lwrist -69.356
lhand 2.98722 4.77085
lfingers 7.12502
lthumb 28.4483 32.6281
rfemur 9.01818 5.48648 26.9034
rtibia 15.1785
rfoot -7.32642 -13.5034
rtoes -26.2056
lfemur -32.3468 -7.45938 -15.9513
ltibia 26.3782
lfoot 11.5732 15.45
ltoes -7.69827
350
root 0.155404 15.7501 13.7293 -175.039 8.33785 181.636
lowerback -5.87325 2.02926 -1.23429
upperback 1.63964 2.79751 0.191064
thorax 4.92389 1.3455 1.16922
lowerneck -34.3493 0.842023 5.88418
upperneck 39.614 1.15763 -2.85809
head 22.2681 1.62629 -1.9585
rclavicle -5.64051e-015 -1.07344e-014
rhumerus -33.3464 -14.5393 -80.1052
rradius 32.5002
rwrist 27.7912
rhand -1.11355 -7.52094
rfingers 7.12502
rthumb 24.5234 -35.9706
lclavicle -5.64051e-015 -1.07344e-014
lhumerus -40.4774 37.118 62.1184
lradius 15.2091
lwrist -70.1915
lhand 2.9868 4.80063
lfingers 7.12502
lthumb 28.4479 32.658
rfemur 8.69253 5.56552 26.4706
rtibia 16.7339
rfoot -7.3461 -13.6711
rtoes -26.6675
lfemur -32.0466 -7.27514 -16.6107
ltibia 26.6804
lfoot 11.5491 15.23
ltoes -6.43439
351
root 0.135836 15.7551 13.6116 -175.114 8.37851 181.286
lowerback -5.9254 2.02299 -1.56437
upperback 1.61661 2.82091 0.0775742
thorax 4.919 1.34907 1.24009
lowerneck -34.6462 0.657967 5.50226
upperneck 39.9724 0.973653 -2.50008
head 22.5946 1.58136 -1.74999
rclavicle -3.18801e-014 -2.78299e-015
rhumerus -33.5584 -15.0014 -79.8828
rradius 32.2646
rwrist 28.1017
rhand -1.15486 -7.5559
rfingers 7.12502
rthumb 24.4838 -36.011
lclavicle -3.18801e-014 -2.78299e-015
lhumerus -40.8316 37.6871 61.4819
lradius 15.028
lwrist -70.9557
lhand 3.0125 4.82926
lfingers 7.12502
lthumb 28.4725 32.6825
rfemur 8.20221 5.53296 25.9903
rtibia 18.5478
rfoot -7.39267 -13.7516
rtoes -27.1205
lfemur -31.723 -7.09017 -17.2846
ltibia 26.945
lfoot 11.5699 14.964
ltoes -5.40251
352
root 0.11529 15.7609 13.4962 -175.184 8.41557 180.947
lowerback -5.96271 2.02076 -1.86389
upperback 1.5909 2.84793 -0.0375909
thorax 4.90422 1.35584 1.29182
lowerneck -35.0312 0.500655 5.14577
upperneck 39.8974 0.771119 -2.12302
head 23.3638 1.55292 -1.60258
rclavicle -1.34925e-014 -7.35503e-015
rhumerus -33.7799 -15.4987 -79.6426
rradius 32.0231
rwrist 28.4062
rhand -1.17851 -7.58839
rfingers 7.12502
rthumb 24.4611 -36.0465
lclavicle -1.34925e-014 -7.35503e-015
lhumerus -41.1255 38.1554 60.9334
lradius 14.8851
lwrist -71.6557
lhand 3.05267 4.82545
lfingers 7.12502
lthumb 28.5109 32.6723
rfemur 7.57813 5.3707 25.486
rtibia 20.5492
rfoot -7.40815 -13.7143
rtoes -27.6152
lfemur -31.3873 -6.88654 -17.9454
ltibia 27.1845
lfoot 11.5345 14.6695
ltoes -4.61995
353
root 0.0934689 15.7676 13.383 -175.254 8.45703 180.644
lowerback -5.9793 2.02433 -2.10415
upperback 1.56187 2.87782 -0.147919
thorax 4.8766 1.36621 1.31477
lowerneck -35.1188 0.399029 4.96616
upperneck 40.0205 0.64947 -1.93257
head 23.4875 1.52034 -1.49791
rclavicle -1.15295e-014 6.75868e-015
rhumerus -34.0176 -16.0127 -79.3893
rradius 31.7885
rwrist 28.666
rhand -1.18203 -7.59846
rfingers 7.12502
rthumb 24.4577 -36.0571
lclavicle -1.15295e-014 6.75868e-015
lhumerus -41.318 38.4463 60.5522
lradius 14.7948
lwrist -72.1551
lhand 3.1355 4.82443
lfingers 7.12502
lthumb 28.59 32.6579
rfemur 6.85317 5.07705 24.9764
rtibia 22.6801
rfoot -7.36262 -13.5362
rtoes -28.1436
lfemur -31.0353 -6.66035 -18.5687
ltibia 27.4057
lfoot 11.392 14.3633
ltoes -3.99091
354
root 0.0702462 15.7756 13.2719 -175.326 8.51312 180.385
lowerback -5.9782 2.03411 -2.27691
upperback 1.54035 2.91006 -0.247354
thorax 4.84931 1.37971 1.31093
lowerneck -35.1074 0.398792 4.98996
upperneck 39.9803 0.607345 -1.90632
head 23.4453 1.50954 -1.50045
rclavicle -5.04168e-014 -1.59028e-015
rhumerus -34.2453 -16.5183 -79.1312
rradius 31.5585
rwrist 28.9031
rhand -1.16588 -7.61191
rfingers 7.12502
rthumb 24.4732 -36.0684
lclavicle -5.04168e-014 -1.59028e-015
lhumerus -41.3686 38.5488 60.3874
lradius 14.7486
lwrist -72.3871
lhand 3.23712 4.83132
lfingers 7.12502
lthumb 28.6871 32.6485
rfemur 6.05004 4.66413 24.4683
rtibia 24.9001
rfoot -7.2134 -13.2179
rtoes -28.706
lfemur -30.6625 -6.40624 -19.1474
ltibia 27.6018
lfoot 11.1317 14.1125
ltoes -3.39255
355
root 0.0455393 15.7851 13.163 -175.401 8.59478 180.172
lowerback -5.96403 2.0516 -2.38161
upperback 1.53339 2.94665 -0.335834
thorax 4.83232 1.39702 1.28066
lowerneck -34.9813 0.468073 5.16852
upperneck 39.7964 0.619334 -2.01416
head 23.2465 1.51017 -1.59104
rclavicle -1.77912e-014 1.74931e-014
rhumerus -34.4576 -16.977 -78.8918
rradius 31.3613
rwrist 29.0607
rhand -1.11907 -7.62689
rfingers 7.12502
rthumb 24.5181 -36.0773
lclavicle -1.77912e-014 1.74931e-014
lhumerus -41.2647 38.466 60.4473
lradius 14.7436
lwrist -72.3691
lhand 3.3452 4.83933
lfingers 7.12502
lthumb 28.7904 32.6389
rfemur 5.17566 4.1577 23.9637
rtibia 27.184
rfoot -6.94222 -12.7599
rtoes -29.2172
lfemur -30.2574 -6.13607 -19.6744
ltibia 27.7552
lfoot 10.7858 13.9632
ltoes -2.72517
